<?xml version="1.0" encoding="UTF-8"?>
<svg width="12px" height="16px" viewBox="0 0 12 16" version="1.1" xmlns="http://www.w3.org/2000/svg" xmlns:xlink="http://www.w3.org/1999/xlink">
    <!-- Generator: Sketch 60 (88103) - https://sketch.com -->
    <title>火花</title>
    <desc>Created with Sketch.</desc>
    <g id="首页" stroke="none" stroke-width="1" fill="none" fill-rule="evenodd">
        <g id="首页-医院需求" transform="translate(-285.000000, -250.000000)" fill="#FF3500" fill-rule="nonzero">
            <g id="编组-7" transform="translate(0.000000, 242.000000)">
                <g id="医院" transform="translate(10.000000, 0.000000)">
                    <g id="编组-17" transform="translate(186.000000, 7.000000)">
                        <g id="编组-16" transform="translate(89.000000, 1.000000)">
                            <path d="M4.44397632,15.3893056 C4.44397632,15.3893056 -2.20811974,13.8881613 0.764970444,6.43740151 C0.764970444,6.43740151 1.43997012,7.26526371 1.34722207,7.66373681 C1.34722207,7.66373681 1.87622946,5.78301251 3.01840448,4.6597306 C3.99912921,3.69446389 4.99531194,0.980724724 4.07641925,-2.66453526e-15 C4.07641925,-2.66453526e-15 8.6279438,0.980724724 9.13462294,5.8860659 C9.13462294,5.8860659 9.71687458,4.32308954 10.9122939,4.16850946 C10.9122939,4.16850946 10.5447368,5.02728768 10.9122939,6.31545501 C10.9122939,6.31545501 14.6823302,12.9366351 8.18481424,15.1746111 C8.18481424,15.1746111 10.1325232,12.905719 6.00180001,9.01201861 C6.00180001,9.01201861 5.02794551,11.0971321 4.44569388,11.8322463 C4.44397632,11.8339638 2.81916794,13.7026652 4.44397632,15.3893056 Z" id="火花"></path>
                        </g>
                    </g>
                </g>
            </g>
        </g>
    </g>
</svg>