<?xml version="1.0" encoding="UTF-8"?>
<svg width="14px" height="14px" viewBox="0 0 14 14" version="1.1" xmlns="http://www.w3.org/2000/svg" xmlns:xlink="http://www.w3.org/1999/xlink">
    <!-- Generator: Sketch 59 (86127) - https://sketch.com -->
    <title>搜索</title>
    <desc>Created with Sketch.</desc>
    <g id="首页" stroke="none" stroke-width="1" fill="none" fill-rule="evenodd">
        <g id="首页-医院需求" transform="translate(-331.000000, -210.000000)" fill="#80ADED" fill-rule="nonzero">
            <g id="编组-9" transform="translate(0.000000, 192.000000)">
                <path d="M344.818684,30.8626623 L342.193311,28.2820875 C344.380966,25.7901763 344.250304,22.0728421 341.843323,19.7983898 C339.392477,17.3932754 335.366221,17.3932754 332.87151,19.8422549 C330.420664,22.2035041 330.376799,26.0953654 332.740848,28.5004797 L332.87151,28.6320751 C335.146895,30.8187972 338.692502,31.0810545 341.230145,29.2013881 L343.856452,31.7810295 C343.987114,31.9116916 344.162574,31.9994218 344.337101,31.9994218 C344.519939,31.9920963 344.69271,31.9137467 344.818684,31.7810295 C345.03801,31.561704 345.081875,31.1249196 344.818684,30.8626623 L344.818684,30.8626623 Z M332.346995,24.2156991 C332.389927,21.503529 334.622381,19.3177402 337.379349,19.3177402 C340.136318,19.3177402 342.367838,21.503529 342.411703,24.2156991 C342.367838,26.9698676 340.092453,29.1565897 337.379349,29.1127246 C336.061324,29.1351699 334.788821,28.6307911 333.844085,27.7114608 C332.89935,26.7921305 332.360478,25.5338463 332.346995,24.2156991 L332.346995,24.2156991 Z" id="搜索"></path>
            </g>
        </g>
    </g>
</svg>