<?xml version="1.0" encoding="UTF-8"?>
<svg width="20px" height="20px" viewBox="0 0 20 20" version="1.1" xmlns="http://www.w3.org/2000/svg" xmlns:xlink="http://www.w3.org/1999/xlink">
    <!-- Generator: Sketch 60 (88103) - https://sketch.com -->
    <title>我的2</title>
    <desc>Created with Sketch.</desc>
    <g id="首页" stroke="none" stroke-width="1" fill="none" fill-rule="evenodd">
        <g id="首页-医院需求" transform="translate(-302.000000, -1510.000000)" fill="#999999">
            <g id="底部导航" transform="translate(0.000000, 1504.000000)">
                <g id="首页" transform="translate(52.000000, 6.000000)">
                    <g id="我的" transform="translate(250.000000, 0.000000)">
                        <path d="M10,1.91401311 C11.759,1.91401311 13.241,3.39809671 13.241,5.26353605 C13.241,7.08143511 11.806,8.6120255 10,8.6120255 C8.241,8.6120255 6.759,7.12897539 6.759,5.26353605 C6.759,3.4446035 8.194,1.91401311 10,1.91401311 M10,10.5260386 C12.777,10.5260386 15.093,8.18209599 15.093,5.26353605 C15.093,2.39251639 12.824,0 10,0 C7.222,0 4.907,2.3449761 4.907,5.26353605 C4.907,8.13455571 7.176,10.5260386 10,10.5260386 M20,19.6103665 L20,17.0814302 C20,13.5892864 13.38,11.9140082 10,11.9140082 C6.62,11.9140082 0,13.5892864 0,17.0814302 L0,19.6103665 C0,19.9328136 0.671,20 0.919,20 C1.171,20.0010236 1.852,19.9214453 1.852,19.6103665 L1.852,17.0814302 C1.852,15.59838 6.343,13.8280213 10,13.8280213 C13.657,13.8280213 18.148,15.6459203 18.148,17.0814302 C18.148,17.0814302 18.163,18.911731 18.148,19.6103665 C18.143,19.8604697 18.319,20 19.043,20 C19.878,20 20,19.7932932 20,19.6103665" id="我的2"></path>
                    </g>
                </g>
            </g>
        </g>
    </g>
</svg>