<?xml version="1.0" encoding="UTF-8"?>
<svg width="46px" height="34px" viewBox="0 0 46 34" version="1.1" xmlns="http://www.w3.org/2000/svg" xmlns:xlink="http://www.w3.org/1999/xlink">
    <!-- Generator: Sketch 60 (88103) - https://sketch.com -->
    <title>发布</title>
    <desc>Created with Sketch.</desc>
    <defs>
        <linearGradient x1="0%" y1="22.68431%" x2="100%" y2="77.31569%" id="linearGradient-1">
            <stop stop-color="#32C5FF" offset="0%"></stop>
            <stop stop-color="#80ADED" offset="100%"></stop>
        </linearGradient>
    </defs>
    <g id="个人中心" stroke="none" stroke-width="1" fill="none" fill-rule="evenodd">
        <g id="个人中心-未登录" transform="translate(-165.000000, -577.000000)" fill="url(#linearGradient-1)">
            <g id="底部导航" transform="translate(0.000000, 572.000000)">
                <g id="发布" transform="translate(165.000000, 5.000000)">
                    <path d="M23.0002,-0.0001 C28.4212,-0.0001 33.6602,0.1829 38.7172,0.5469 C41.9432,0.7789 44.5902,3.1919 45.1192,6.3829 C45.7062,9.9219 46.0002,13.4609 46.0002,16.9999 C46.0002,20.5389 45.7062,24.0779 45.1192,27.6169 C44.5902,30.8089 41.9432,33.2209 38.7172,33.4529 C33.6602,33.8179 28.4212,33.9999 23.0002,33.9999 C17.5792,33.9999 12.3402,33.8179 7.2832,33.4529 C4.0572,33.2209 1.4102,30.8089 0.8812,27.6169 C0.2932,24.0779 0.0002,20.5389 0.0002,16.9999 C0.0002,13.4609 0.2932,9.9219 0.8812,6.3829 C1.4102,3.1919 4.0572,0.7789 7.2832,0.5469 C12.3402,0.1829 17.5792,-0.0001 23.0002,-0.0001 Z M23.2269257,8.00022001 L22.7730743,8.00022001 C22.4461941,7.99392 22.131284,8.12316008 21.9030438,8.35725021 C21.6660737,8.59719034 21.5460136,8.8866305 21.5460136,9.22719069 L21.5460136,9.22719069 L21.5460136,15.5461036 L15.2287207,15.5461036 C14.9018405,15.5398036 14.5869303,15.6689537 14.3586902,15.9030438 C14.1201901,16.143074 14.00022,16.4325141 14.00022,16.7730743 L14.00022,16.7730743 L14.00022,17.2284557 C13.99392,17.5553359 14.1231601,17.870246 14.3572502,18.0984862 C14.5854003,18.3324863 14.9003105,18.4617264 15.2271907,18.4555164 L15.2271907,18.4555164 L21.5461036,18.4555164 L21.5461036,24.7713693 C21.5398036,25.0981595 21.6689537,25.4130697 21.9030438,25.6413098 C22.131014,25.8758499 22.4459241,26.00572 22.7730743,25.99978 L22.7730743,25.99978 L23.2284557,25.99978 C23.5553359,26.00608 23.870246,25.8768399 24.0984862,25.6428398 C24.3354563,25.4028997 24.4555164,25.1133695 24.4555164,24.7728993 L24.4555164,24.7728993 L24.4555164,18.4539864 L30.7713693,18.4539864 C31.0981595,18.4601964 31.4130697,18.3310463 31.6413098,18.0969562 C31.8798099,17.856926 31.99978,17.5673959 31.99978,17.2269257 L31.99978,17.2269257 L31.99978,16.7730743 C31.99978,16.4325141 31.8813399,16.143074 31.6428398,15.9030438 C31.4028997,15.6660737 31.1133695,15.5460136 30.7728993,15.5460136 L30.7728993,15.5460136 L24.4539864,15.5460136 L24.4539864,9.22872069 C24.4539864,8.8866305 24.3354563,8.59719034 24.0969562,8.35869021 C23.856926,8.12019007 23.5673959,8.00022001 23.2269257,8.00022001 L23.2269257,8.00022001 Z" id="Combined-Shape"></path>
                </g>
            </g>
        </g>
    </g>
</svg>