<?xml version="1.0" encoding="UTF-8"?>
<svg width="20px" height="20px" viewBox="0 0 20 20" version="1.1" xmlns="http://www.w3.org/2000/svg" xmlns:xlink="http://www.w3.org/1999/xlink">
    <!-- Generator: Sketch 60 (88103) - https://sketch.com -->
    <title>首页2</title>
    <desc>Created with Sketch.</desc>
    <g id="个人中心" stroke="none" stroke-width="1" fill="none" fill-rule="evenodd">
        <g id="个人中心-未登录" transform="translate(-52.000000, -578.000000)" fill="#999999" fill-rule="nonzero">
            <g id="底部导航" transform="translate(0.000000, 572.000000)">
                <g id="我的" transform="translate(52.000000, 6.000000)">
                    <g id="首页">
                        <path d="M18.5,7.96260526 L10.0673041,1.52224524 L1.5,7.9719802 L1.5,18.5 L6.24566474,18.5 L6.24566474,14.3911275 C6.24566474,12.3524341 7.86558511,10.6477648 9.92542679,10.573827 C12.080773,10.4998525 13.8699422,12.1974437 13.8699422,14.3345864 L13.8699422,18.4886918 L18.5,18.4886918 L18.5,7.96260526 Z M20,7.88890632 L20,18.6317065 C20,19.3780484 19.3757225,19.9886918 18.6127168,19.9886918 L13.1445087,19.9886918 C12.716763,19.9886918 12.3699422,19.6494455 12.3699422,19.2310417 L12.3699422,14.3345864 C12.3699422,13.0567586 11.2947977,12.0277114 9.97687861,12.0729443 C8.71676301,12.1181771 7.74566474,13.1698407 7.74566474,14.3911275 L7.74566474,19.2423499 C7.74566474,19.6607537 7.39884393,20 6.97109827,20 L1.38728324,20 C0.624277457,20 0,19.3893566 0,18.6430147 L0,7.88890632 C0,7.47050253 0.196531792,7.07471515 0.543352601,6.81462631 L9.22543353,0.278480513 C9.72254335,-0.0946904411 10.4277457,-0.0946904411 10.9248555,0.289788723 L19.4682081,6.81462631 C19.8034682,7.07471515 20,7.47050253 20,7.88890632 Z" id="首页2"></path>
                    </g>
                </g>
            </g>
        </g>
    </g>
</svg>