<?xml version="1.0" encoding="UTF-8"?>
<svg width="20px" height="20px" viewBox="0 0 20 20" version="1.1" xmlns="http://www.w3.org/2000/svg" xmlns:xlink="http://www.w3.org/1999/xlink">
    <!-- Generator: Sketch 60 (88103) - https://sketch.com -->
    <title>我的1</title>
    <desc>Created with Sketch.</desc>
    <g id="个人中心" stroke="none" stroke-width="1" fill="none" fill-rule="evenodd">
        <g id="个人中心-未登录" transform="translate(-302.000000, -578.000000)" fill="#333333">
            <g id="底部导航" transform="translate(0.000000, 572.000000)">
                <g id="我的" transform="translate(52.000000, 6.000000)">
                    <g transform="translate(250.000000, 0.000000)" id="我的1">
                        <path d="M10.0033303,10.5260438 C12.7813303,10.5260438 15.0953303,8.18106656 15.0953303,5.26250517 C15.0953303,2.39148408 12.8283303,0 10.0033303,0 C7.22533029,0 4.91133029,2.34394378 4.91133029,5.26250517 C4.91133029,8.13352625 7.17933029,10.5260438 10.0033303,10.5260438 M0.759330288,20 L19.2143303,20 C20.0033303,20 20.0033303,18.8797024 20.0033303,18.8797024 L20.0033303,17.0804051 C20.0033303,13.5882596 13.3823303,11.9140141 10.0033303,11.9140141 C6.62433029,11.9140141 0.00333028829,13.5882596 0.00333028829,17.0804051 L0.00333028829,19.2011162 C0.00333028829,19.2011162 -0.0936697117,20 0.759330288,20"></path>
                    </g>
                </g>
            </g>
        </g>
    </g>
</svg>