<?xml version="1.0" encoding="UTF-8"?>
<svg width="20px" height="20px" viewBox="0 0 20 20" version="1.1" xmlns="http://www.w3.org/2000/svg" xmlns:xlink="http://www.w3.org/1999/xlink">
    <!-- Generator: Sketch 60 (88103) - https://sketch.com -->
    <title>首页1</title>
    <desc>Created with Sketch.</desc>
    <g id="首页" stroke="none" stroke-width="1" fill="none" fill-rule="evenodd">
        <g id="首页-医院需求" transform="translate(-52.000000, -1510.000000)" fill="#333333">
            <g id="底部导航" transform="translate(0.000000, 1504.000000)">
                <g id="首页" transform="translate(52.000000, 6.000000)">
                    <g id="首页1">
                        <path d="M19.4682081,6.81462631 L10.9248555,0.289788723 C10.4277457,-0.0946904411 9.72254335,-0.0946904411 9.22543353,0.278480513 L0.543352601,6.81462631 C0.196531792,7.07471515 0,7.47050253 0,7.88890632 L0,18.6430147 C0,19.3893566 0.624277457,20 1.38728324,20 L6.97109827,20 C7.39884393,20 7.74566474,19.6607537 7.74566474,19.2423499 L7.74566474,14.3911275 C7.74566474,13.1698407 8.71676301,12.1181771 9.97687861,12.0729443 C11.2947977,12.0277114 12.3699422,13.0567586 12.3699422,14.3345864 L12.3699422,19.2310417 C12.3699422,19.6494455 12.716763,19.9886918 13.1445087,19.9886918 L18.6127168,19.9886918 C19.3757225,19.9886918 20,19.3780484 20,18.6317065 L20,7.88890632 C20,7.47050253 19.8034682,7.07471515 19.4682081,6.81462631 L19.4682081,6.81462631 Z"></path>
                    </g>
                </g>
            </g>
        </g>
    </g>
</svg>